<svg width="1440" height="390" viewBox="0 0 1440 390" fill="none" xmlns="http://www.w3.org/2000/svg">
<rect width="1440" height="390" fill="url(#paint0_linear_4508_3404)"/>
<mask id="mask0_4508_3404" style="mask-type:alpha" maskUnits="userSpaceOnUse" x="0" y="0" width="1440" height="390">
<rect width="1440" height="390" fill="url(#paint1_linear_4508_3404)"/>
</mask>
<g mask="url(#mask0_4508_3404)">
<g style="mix-blend-mode:luminosity" opacity="0.5">
<g clip-path="url(#clip0_4508_3404)">
<path d="M1326.2 255.183L1189.02 512.07L1251.31 532.994H1324.47H1396.62L1459.92 507.576L1326.2 255.183Z" fill="#3A935E"/>
<path opacity="0.19" d="M1189.02 512.07L1326.2 255.183L1251.31 532.994L1189.02 512.07Z" fill="black"/>
<path opacity="0.18" d="M1396.62 532.994L1326.2 255.183L1459.92 507.576L1396.62 532.994Z" fill="white"/>
<path d="M1324.47 172.85L1204.4 402.071L1265.69 425.719H1324.47H1383.28L1444.54 402.071L1324.47 172.85Z" fill="#3A935E"/>
<path opacity="0.18" d="M1326.2 176.153L1444.54 402.071L1383.28 425.718L1326.2 176.153Z" fill="white"/>
<path opacity="0.19" d="M1204.4 402.071L1324.47 172.85L1265.69 425.719L1204.4 402.071Z" fill="black"/>
<path opacity="0.15" d="M1259.47 296.954L1292.32 309.843L1356.95 309.394L1391.56 300.936L1383.65 285.835L1265.87 284.725L1259.47 296.954Z" fill="black"/>
<path d="M1324.47 121L1239.73 271.826L1284.41 293.87H1324.47H1364.53L1412.67 273.632L1324.47 121Z" fill="#3A935E"/>
<path opacity="0.18" d="M1324.47 121L1364.53 293.87L1412.67 273.632L1324.47 121Z" fill="white"/>
<path opacity="0.19" d="M1324.47 121L1284.41 293.87L1239.73 271.826L1324.47 121Z" fill="black"/>
</g>
<g clip-path="url(#clip1_4508_3404)">
<path d="M1124.17 255.183L987 512.07L1049.29 532.994H1122.45H1194.6L1257.89 507.576L1124.17 255.183Z" fill="#3A935E"/>
<path opacity="0.19" d="M987 512.07L1124.18 255.183L1049.29 532.994L987 512.07Z" fill="black"/>
<path opacity="0.18" d="M1194.6 532.994L1124.17 255.183L1257.89 507.576L1194.6 532.994Z" fill="white"/>
<path d="M1122.45 172.85L1002.38 402.071L1063.67 425.719H1122.45H1181.25L1242.52 402.071L1122.45 172.85Z" fill="#3A935E"/>
<path opacity="0.18" d="M1124.17 176.153L1242.52 402.071L1181.25 425.718L1124.17 176.153Z" fill="white"/>
<path opacity="0.19" d="M1002.38 402.071L1122.45 172.85L1063.67 425.719L1002.38 402.071Z" fill="black"/>
<path opacity="0.15" d="M1057.44 296.954L1090.3 309.843L1154.93 309.394L1189.54 300.936L1181.63 285.835L1063.85 284.725L1057.44 296.954Z" fill="black"/>
<path d="M1122.45 121L1037.71 271.826L1082.39 293.87H1122.45H1162.5L1210.64 273.632L1122.45 121Z" fill="#3A935E"/>
<path opacity="0.18" d="M1122.45 121L1162.5 293.87L1210.64 273.632L1122.45 121Z" fill="white"/>
<path opacity="0.19" d="M1122.45 121L1082.39 293.87L1037.71 271.826L1122.45 121Z" fill="black"/>
</g>
<g clip-path="url(#clip2_4508_3404)">
<path d="M1225.3 293.652L1078.83 562.656L1145.34 584.568H1223.46H1300.5L1368.09 557.951L1225.3 293.652Z" fill="#3A935E"/>
<path opacity="0.19" d="M1078.83 562.656L1225.3 293.652L1145.34 584.568L1078.83 562.656Z" fill="black"/>
<path opacity="0.18" d="M1300.5 584.568L1225.3 293.652L1368.09 557.951L1300.5 584.568Z" fill="white"/>
<path d="M1223.46 207.435L1095.25 447.469L1160.69 472.232H1223.46H1286.25L1351.67 447.469L1223.46 207.435Z" fill="#3A935E"/>
<path opacity="0.18" d="M1225.3 210.895L1351.67 447.469L1286.25 472.232L1225.3 210.895Z" fill="white"/>
<path opacity="0.19" d="M1095.25 447.469L1223.46 207.435L1160.69 472.232L1095.25 447.469Z" fill="black"/>
<path opacity="0.15" d="M1154.05 337.393L1189.13 350.891L1258.14 350.42L1295.1 341.563L1286.65 325.75L1160.89 324.587L1154.05 337.393Z" fill="black"/>
<path d="M1223.46 153.14L1132.97 311.08L1180.68 334.164H1223.46H1266.23L1317.63 312.972L1223.46 153.14Z" fill="#3A935E"/>
<path opacity="0.18" d="M1223.46 153.14L1266.23 334.164L1317.63 312.972L1223.46 153.14Z" fill="white"/>
<path opacity="0.19" d="M1223.46 153.14L1180.68 334.164L1132.97 311.08L1223.46 153.14Z" fill="black"/>
</g>
<g clip-path="url(#clip3_4508_3404)">
<path d="M329.47 426.69L340.478 411.571L338.199 368.858L329.47 351.995H307.133V417.527L329.47 426.69Z" fill="#593F30"/>
<path d="M329.47 426.69L349.477 416.998V351.995H329.47V426.69Z" fill="#7F5F4C"/>
<path d="M331.199 74.1831L194.024 331.07L256.313 351.994H329.47H401.624L464.917 326.576L331.199 74.1831Z" fill="#3A935E"/>
<path opacity="0.19" d="M194.024 331.07L331.199 74.1831L256.313 351.994L194.024 331.07Z" fill="black"/>
<path opacity="0.18" d="M401.624 351.994L331.199 74.1831L464.917 326.576L401.624 351.994Z" fill="white"/>
<path opacity="0.15" d="M237.267 250.093L280.091 261.934L379.042 262.243L423.647 248.675L415.904 234.058L245.359 234.948L237.267 250.093Z" fill="black"/>
<path d="M329.47 -8.15039L209.404 221.071L270.689 244.719H329.47H388.277L449.545 221.071L329.47 -8.15039Z" fill="#3A935E"/>
<path opacity="0.18" d="M331.199 -4.84668L449.545 221.071L388.277 244.718L331.199 -4.84668Z" fill="white"/>
<path opacity="0.19" d="M209.404 221.071L329.47 -8.15039L270.689 244.719L209.404 221.071Z" fill="black"/>
<path opacity="0.15" d="M264.466 115.954L297.322 128.843L361.951 128.394L396.561 119.936L388.652 104.835L270.873 103.725L264.466 115.954Z" fill="black"/>
<path d="M329.47 -60L244.73 90.8262L289.413 112.87H329.47H369.527L417.667 92.6324L329.47 -60Z" fill="#3A935E"/>
<path opacity="0.18" d="M329.47 -60L369.527 112.87L417.667 92.6324L329.47 -60Z" fill="white"/>
<path opacity="0.19" d="M329.47 -60L289.413 112.87L244.73 90.8262L329.47 -60Z" fill="black"/>
<path opacity="0.13" d="M307.133 351.995H349.477V362.867L329.47 366.329L307.133 362.453V351.995Z" fill="black"/>
</g>
<g clip-path="url(#clip4_4508_3404)">
<path d="M127.447 426.69L138.454 411.571L136.176 368.858L127.447 351.995H105.11V417.527L127.447 426.69Z" fill="#593F30"/>
<path d="M127.447 426.69L147.453 416.998V351.995H127.447V426.69Z" fill="#7F5F4C"/>
<path d="M129.175 74.1831L-7.99976 331.07L54.2898 351.994H127.447H199.6L262.894 326.576L129.175 74.1831Z" fill="#3A935E"/>
<path opacity="0.19" d="M-7.99976 331.07L129.175 74.1831L54.2898 351.994L-7.99976 331.07Z" fill="black"/>
<path opacity="0.18" d="M199.6 351.994L129.175 74.1831L262.894 326.576L199.6 351.994Z" fill="white"/>
<path opacity="0.15" d="M35.2434 250.093L78.0675 261.934L177.019 262.243L221.623 248.675L213.881 234.058L43.3351 234.948L35.2434 250.093Z" fill="black"/>
<path d="M127.446 -8.15039L7.38013 221.071L68.6659 244.719H127.446H186.253L247.521 221.071L127.446 -8.15039Z" fill="#3A935E"/>
<path opacity="0.18" d="M129.175 -4.84668L247.522 221.071L186.254 244.718L129.175 -4.84668Z" fill="white"/>
<path opacity="0.19" d="M7.38013 221.071L127.446 -8.15039L68.6659 244.719L7.38013 221.071Z" fill="black"/>
<path opacity="0.15" d="M62.4426 115.954L95.2983 128.843L159.927 128.394L194.537 119.936L186.629 104.835L68.8497 103.725L62.4426 115.954Z" fill="black"/>
<path d="M127.447 -60L42.7063 90.8262L87.3896 112.87H127.447H167.504L215.644 92.6324L127.447 -60Z" fill="#3A935E"/>
<path opacity="0.18" d="M127.447 -60L167.504 112.87L215.644 92.6324L127.447 -60Z" fill="white"/>
<path opacity="0.19" d="M127.447 -60L87.3896 112.87L42.7063 90.8262L127.447 -60Z" fill="black"/>
<path opacity="0.13" d="M105.11 351.995H147.454V362.867L127.447 366.329L105.11 362.453V351.995Z" fill="black"/>
</g>
<g clip-path="url(#clip5_4508_3404)">
<path d="M230.303 112.652L83.8284 381.656L150.341 403.568H228.458H305.503L373.087 376.951L230.303 112.652Z" fill="#3A935E"/>
<path opacity="0.19" d="M83.8284 381.656L230.303 112.652L150.341 403.568L83.8284 381.656Z" fill="black"/>
<path opacity="0.18" d="M305.502 403.568L230.303 112.652L373.087 376.951L305.502 403.568Z" fill="white"/>
<path opacity="0.15" d="M130.003 296.86L175.731 309.26L281.39 309.582L329.019 295.374L320.752 280.068L138.643 281L130.003 296.86Z" fill="black"/>
<path d="M228.458 26.4351L100.251 266.469L165.692 291.232H228.458H291.251L356.673 266.469L228.458 26.4351Z" fill="#3A935E"/>
<path opacity="0.18" d="M230.303 29.8945L356.673 266.469L291.251 291.232L230.303 29.8945Z" fill="white"/>
<path opacity="0.19" d="M100.251 266.469L228.458 26.4351L165.692 291.232L100.251 266.469Z" fill="black"/>
<path opacity="0.15" d="M159.046 156.393L194.129 169.891L263.14 169.42L300.096 160.563L291.652 144.75L165.888 143.587L159.046 156.393Z" fill="black"/>
<path d="M228.457 -27.8604L137.972 130.08L185.685 153.164H228.457H271.23L322.634 131.972L228.457 -27.8604Z" fill="#3A935E"/>
<path opacity="0.18" d="M228.458 -27.8604L271.231 153.164L322.635 131.972L228.458 -27.8604Z" fill="white"/>
<path opacity="0.19" d="M228.457 -27.8604L185.685 153.164L137.972 130.08L228.457 -27.8604Z" fill="black"/>
</g>
</g>
</g>
<defs>
<linearGradient id="paint0_linear_4508_3404" x1="767" y1="207.306" x2="-5.8687e-05" y2="207.306" gradientUnits="userSpaceOnUse">
<stop stop-color="#5ED3D0"/>
<stop offset="1" stop-color="#89A2FB"/>
</linearGradient>
<linearGradient id="paint1_linear_4508_3404" x1="767" y1="207.306" x2="-5.8687e-05" y2="207.306" gradientUnits="userSpaceOnUse">
<stop stop-color="#5ED3D0"/>
<stop offset="1" stop-color="#89A2FB"/>
</linearGradient>
<clipPath id="clip0_4508_3404">
<rect width="270.893" height="486.69" fill="white" transform="translate(1189.02 121)"/>
</clipPath>
<clipPath id="clip1_4508_3404">
<rect width="270.893" height="486.69" fill="white" transform="translate(987 121)"/>
</clipPath>
<clipPath id="clip2_4508_3404">
<rect width="289.259" height="509.647" fill="white" transform="translate(1078.83 153.14)"/>
</clipPath>
<clipPath id="clip3_4508_3404">
<rect width="270.893" height="486.69" fill="white" transform="translate(194.024 -60)"/>
</clipPath>
<clipPath id="clip4_4508_3404">
<rect width="270.893" height="486.69" fill="white" transform="translate(-7.99976 -60)"/>
</clipPath>
<clipPath id="clip5_4508_3404">
<rect width="289.259" height="509.647" fill="white" transform="translate(83.8284 -27.8604)"/>
</clipPath>
</defs>
</svg>
