<svg width="189" height="331" viewBox="0 0 189 331" fill="none" xmlns="http://www.w3.org/2000/svg">
<g clip-path="url(#clip0_1305_10801)">
<path d="M94.4996 331L102.179 320.718L100.59 291.668L94.4996 280.2H78.915V324.768L94.4996 331Z" fill="#463227"/>
<path d="M94.5 331L108.458 324.409V280.2H94.5V331Z" fill="#694E3D"/>
<path d="M95.7058 91.2588L0 265.969L43.4589 280.2H94.5H144.841L189 262.913L95.7058 91.2588Z" fill="#3BB4B0"/>
<path opacity="0.19" d="M0 265.969L95.7058 91.2588L43.4589 280.2L0 265.969Z" fill="black"/>
<path opacity="0.18" d="M144.841 280.2L95.7061 91.2588L189 262.913L144.841 280.2Z" fill="white"/>
<path opacity="0.15" d="M30.1699 210.896L60.0479 218.949L129.085 219.159L160.206 209.931L154.804 199.99L35.8154 200.595L30.1699 210.896Z" fill="black"/>
<path d="M94.4997 35.2632L10.7305 191.158L53.489 207.241H94.4997H135.529L178.275 191.158L94.4997 35.2632Z" fill="#3BB4B0"/>
<path opacity="0.18" d="M95.7061 37.5103L178.276 191.158L135.529 207.241L95.7061 37.5103Z" fill="white"/>
<path opacity="0.19" d="M10.7305 191.158L94.4997 35.2632L53.489 207.241L10.7305 191.158Z" fill="black"/>
<path opacity="0.15" d="M49.1475 119.667L72.0706 128.433L117.162 128.128L141.309 122.375L135.791 112.105L53.6176 111.35L49.1475 119.667Z" fill="black"/>
<path d="M94.4996 0L35.377 102.578L66.5521 117.57H94.4996H122.447L156.034 103.806L94.4996 0Z" fill="#3BB4B0"/>
<path opacity="0.18" d="M94.5 0L122.447 117.57L156.034 103.806L94.5 0Z" fill="white"/>
<path opacity="0.19" d="M94.4996 0L66.5521 117.57L35.377 102.578L94.4996 0Z" fill="black"/>
<path opacity="0.13" d="M78.915 280.2H108.458V287.594L94.4996 289.949L78.915 287.312V280.2Z" fill="black"/>
</g>
<defs>
<clipPath id="clip0_1305_10801">
<rect width="189" height="331" fill="white"/>
</clipPath>
</defs>
</svg>
