<svg width="1440" height="309" viewBox="0 0 1440 309" fill="none" xmlns="http://www.w3.org/2000/svg">
<path d="M-24 169.5C-17.8333 218.167 24.1 267.2 116.5 268C276.5 269.385 262.5 55 456.5 55C596.5 55 575.944 216.5 685.5 216.5C755.5 216.5 756 145.5 848 148C940 150.5 934.5 282 1069.5 278.5C1204.5 275 1160.51 101.86 1362.5 87.5C1468 80 1582.5 130.5 1667 257" stroke="#3C3C40" stroke-width="60"/>
<path d="M-24 169.5C-17.8333 218.167 24.1 267.2 116.5 268C276.5 269.385 262.5 55 456.5 55C596.5 55 575.944 216.5 685.5 216.5C755.5 216.5 756 145.5 848 148C940 150.5 934.5 282 1069.5 278.5C1204.5 275 1160.51 101.86 1362.5 87.5C1468 80 1582.5 130.5 1667 257" stroke="white" stroke-width="4" stroke-dasharray="24 24"/>
<g clip-path="url(#clip0_4510_3406)">
<g filter="url(#filter0_d_4510_3406)">
<path d="M326.102 100.999C325.203 99.7439 324.402 98.3999 323.382 97.2502C314.608 87.3566 306.207 77.1957 300.865 64.9217C294.131 49.4416 299.514 34.7873 314.422 27.7597C328.489 21.1288 345.802 26.8529 353.013 40.4709C357.263 48.4943 356.672 56.5015 353.143 64.5574C347.655 77.0662 339.149 87.4699 330.173 97.5498C329.242 98.5942 328.53 99.8411 327.712 100.991H326.093L326.102 100.999ZM339.853 52.421C339.853 45.4258 334.098 39.5641 327.113 39.4669C319.91 39.3617 313.969 45.2072 313.969 52.4048C313.969 59.4 319.732 65.2698 326.709 65.3751C333.864 65.4803 339.861 59.5862 339.861 52.4291L339.853 52.421Z" fill="#7EFFC1"/>
</g>
</g>
<g clip-path="url(#clip1_4510_3406)">
<g filter="url(#filter1_d_4510_3406)">
<path d="M526.102 75.9988C525.203 74.7439 524.402 73.3999 523.382 72.2502C514.608 62.3566 506.207 52.1957 500.865 39.9217C494.131 24.4416 499.514 9.78726 514.422 2.75967C528.489 -3.8712 545.802 1.85289 553.013 15.4709C557.263 23.4943 556.672 31.5015 553.143 39.5574C547.655 52.0662 539.149 62.4699 530.173 72.5498C529.242 73.5942 528.53 74.8411 527.712 75.9907H526.093L526.102 75.9988ZM539.853 27.421C539.853 20.4258 534.098 14.5641 527.113 14.4669C519.91 14.3617 513.969 20.2072 513.969 27.4048C513.969 34.4 519.732 40.2698 526.709 40.3751C533.864 40.4803 539.861 34.5862 539.861 27.4291L539.853 27.421Z" fill="#FFAA5B"/>
</g>
</g>
<g clip-path="url(#clip2_4510_3406)">
<g filter="url(#filter2_d_4510_3406)">
<path d="M720.102 204.999C719.203 203.744 718.402 202.4 717.382 201.25C708.608 191.357 700.207 181.196 694.865 168.922C688.131 153.442 693.514 138.787 708.422 131.76C722.489 125.129 739.802 130.853 747.013 144.471C751.263 152.494 750.672 160.502 747.143 168.557C741.655 181.066 733.149 191.47 724.173 201.55C723.242 202.594 722.53 203.841 721.712 204.991H720.093L720.102 204.999ZM733.853 156.421C733.853 149.426 728.098 143.564 721.113 143.467C713.91 143.362 707.969 149.207 707.969 156.405C707.969 163.4 713.732 169.27 720.709 169.375C727.864 169.48 733.861 163.586 733.861 156.429L733.853 156.421Z" fill="#A689FB"/>
</g>
</g>
<g clip-path="url(#clip3_4510_3406)">
<g filter="url(#filter3_d_4510_3406)">
<path d="M917.102 186.999C916.203 185.744 915.402 184.4 914.382 183.25C905.608 173.357 897.207 163.196 891.865 150.922C885.131 135.442 890.514 120.787 905.422 113.76C919.489 107.129 936.802 112.853 944.013 126.471C948.263 134.494 947.672 142.502 944.143 150.557C938.655 163.066 930.149 173.47 921.173 183.55C920.242 184.594 919.53 185.841 918.712 186.991H917.093L917.102 186.999ZM930.853 138.421C930.853 131.426 925.098 125.564 918.113 125.467C910.91 125.362 904.969 131.207 904.969 138.405C904.969 145.4 910.732 151.27 917.709 151.375C924.864 151.48 930.861 145.586 930.861 138.429L930.853 138.421Z" fill="#FDEC59"/>
</g>
</g>
<g clip-path="url(#clip4_4510_3406)">
<g filter="url(#filter4_d_4510_3406)">
<path d="M1114.1 262.999C1113.2 261.744 1112.4 260.4 1111.38 259.25C1102.61 249.357 1094.21 239.196 1088.87 226.922C1082.13 211.442 1087.51 196.787 1102.42 189.76C1116.49 183.129 1133.8 188.853 1141.01 202.471C1145.26 210.494 1144.67 218.502 1141.14 226.557C1135.66 239.066 1127.15 249.47 1118.17 259.55C1117.24 260.594 1116.53 261.841 1115.71 262.991H1114.09L1114.1 262.999ZM1127.85 214.421C1127.85 207.426 1122.1 201.564 1115.11 201.467C1107.91 201.362 1101.97 207.207 1101.97 214.405C1101.97 221.4 1107.73 227.27 1114.71 227.375C1121.86 227.48 1127.86 221.586 1127.86 214.429L1127.85 214.421Z" fill="#638FFF"/>
</g>
</g>
<defs>
<filter id="filter0_d_4510_3406" x="294" y="24.9974" width="65.9976" height="84.0014" filterUnits="userSpaceOnUse" color-interpolation-filters="sRGB">
<feFlood flood-opacity="0" result="BackgroundImageFix"/>
<feColorMatrix in="SourceAlpha" type="matrix" values="0 0 0 0 0 0 0 0 0 0 0 0 0 0 0 0 0 0 127 0" result="hardAlpha"/>
<feOffset dy="4"/>
<feGaussianBlur stdDeviation="2"/>
<feComposite in2="hardAlpha" operator="out"/>
<feColorMatrix type="matrix" values="0 0 0 0 0 0 0 0 0 0 0 0 0 0 0 0 0 0 0.25 0"/>
<feBlend mode="normal" in2="BackgroundImageFix" result="effect1_dropShadow_4510_3406"/>
<feBlend mode="normal" in="SourceGraphic" in2="effect1_dropShadow_4510_3406" result="shape"/>
</filter>
<filter id="filter1_d_4510_3406" x="494" y="-0.00256348" width="65.9976" height="84.0014" filterUnits="userSpaceOnUse" color-interpolation-filters="sRGB">
<feFlood flood-opacity="0" result="BackgroundImageFix"/>
<feColorMatrix in="SourceAlpha" type="matrix" values="0 0 0 0 0 0 0 0 0 0 0 0 0 0 0 0 0 0 127 0" result="hardAlpha"/>
<feOffset dy="4"/>
<feGaussianBlur stdDeviation="2"/>
<feComposite in2="hardAlpha" operator="out"/>
<feColorMatrix type="matrix" values="0 0 0 0 0 0 0 0 0 0 0 0 0 0 0 0 0 0 0.25 0"/>
<feBlend mode="normal" in2="BackgroundImageFix" result="effect1_dropShadow_4510_3406"/>
<feBlend mode="normal" in="SourceGraphic" in2="effect1_dropShadow_4510_3406" result="shape"/>
</filter>
<filter id="filter2_d_4510_3406" x="688" y="128.997" width="65.9976" height="84.0014" filterUnits="userSpaceOnUse" color-interpolation-filters="sRGB">
<feFlood flood-opacity="0" result="BackgroundImageFix"/>
<feColorMatrix in="SourceAlpha" type="matrix" values="0 0 0 0 0 0 0 0 0 0 0 0 0 0 0 0 0 0 127 0" result="hardAlpha"/>
<feOffset dy="4"/>
<feGaussianBlur stdDeviation="2"/>
<feComposite in2="hardAlpha" operator="out"/>
<feColorMatrix type="matrix" values="0 0 0 0 0 0 0 0 0 0 0 0 0 0 0 0 0 0 0.25 0"/>
<feBlend mode="normal" in2="BackgroundImageFix" result="effect1_dropShadow_4510_3406"/>
<feBlend mode="normal" in="SourceGraphic" in2="effect1_dropShadow_4510_3406" result="shape"/>
</filter>
<filter id="filter3_d_4510_3406" x="885" y="110.997" width="65.9976" height="84.0014" filterUnits="userSpaceOnUse" color-interpolation-filters="sRGB">
<feFlood flood-opacity="0" result="BackgroundImageFix"/>
<feColorMatrix in="SourceAlpha" type="matrix" values="0 0 0 0 0 0 0 0 0 0 0 0 0 0 0 0 0 0 127 0" result="hardAlpha"/>
<feOffset dy="4"/>
<feGaussianBlur stdDeviation="2"/>
<feComposite in2="hardAlpha" operator="out"/>
<feColorMatrix type="matrix" values="0 0 0 0 0 0 0 0 0 0 0 0 0 0 0 0 0 0 0.25 0"/>
<feBlend mode="normal" in2="BackgroundImageFix" result="effect1_dropShadow_4510_3406"/>
<feBlend mode="normal" in="SourceGraphic" in2="effect1_dropShadow_4510_3406" result="shape"/>
</filter>
<filter id="filter4_d_4510_3406" x="1082" y="186.997" width="65.9976" height="84.0014" filterUnits="userSpaceOnUse" color-interpolation-filters="sRGB">
<feFlood flood-opacity="0" result="BackgroundImageFix"/>
<feColorMatrix in="SourceAlpha" type="matrix" values="0 0 0 0 0 0 0 0 0 0 0 0 0 0 0 0 0 0 127 0" result="hardAlpha"/>
<feOffset dy="4"/>
<feGaussianBlur stdDeviation="2"/>
<feComposite in2="hardAlpha" operator="out"/>
<feColorMatrix type="matrix" values="0 0 0 0 0 0 0 0 0 0 0 0 0 0 0 0 0 0 0.25 0"/>
<feBlend mode="normal" in2="BackgroundImageFix" result="effect1_dropShadow_4510_3406"/>
<feBlend mode="normal" in="SourceGraphic" in2="effect1_dropShadow_4510_3406" result="shape"/>
</filter>
<clipPath id="clip0_4510_3406">
<rect width="58" height="76" fill="white" transform="translate(298 25)"/>
</clipPath>
<clipPath id="clip1_4510_3406">
<rect width="58" height="76" fill="white" transform="translate(498)"/>
</clipPath>
<clipPath id="clip2_4510_3406">
<rect width="58" height="76" fill="white" transform="translate(692 129)"/>
</clipPath>
<clipPath id="clip3_4510_3406">
<rect width="58" height="76" fill="white" transform="translate(889 111)"/>
</clipPath>
<clipPath id="clip4_4510_3406">
<rect width="58" height="76" fill="white" transform="translate(1086 187)"/>
</clipPath>
</defs>
</svg>
