<svg width="52" height="24" viewBox="0 0 52 24" fill="none" xmlns="http://www.w3.org/2000/svg">
<rect width="52" height="24" rx="12" fill="url(#paint0_linear_4504_3779)"/>
<mask id="mask0_4504_3779" style="mask-type:alpha" maskUnits="userSpaceOnUse" x="0" y="0" width="52" height="24">
<rect width="52" height="24" rx="12" fill="url(#paint1_linear_4504_3779)"/>
</mask>
<g mask="url(#mask0_4504_3779)">
<path fill-rule="evenodd" clip-rule="evenodd" d="M14.5 14H10H5C3.34315 14 2 12.6569 2 11C2 9.34315 3.34315 8 5 8H5.10002C5.56329 5.71776 7.58104 4 10 4C12.0507 4 13.8131 5.23456 14.5844 7.001C16.4784 7.04582 18 8.59521 18 10.5C18 10.5873 17.9968 10.6739 17.9905 10.7597C17.9968 10.839 18 10.9191 18 11C18 12.6569 16.6569 14 15 14H14.5Z" fill="url(#paint2_linear_4504_3779)"/>
<path fill-rule="evenodd" clip-rule="evenodd" d="M24.9174 25.9437C23.239 27.3084 21.0734 28.0871 18.7424 27.9853C17.2422 27.9197 15.8422 27.4969 14.6208 26.8024C13.3602 28.1621 11.533 28.98 9.53555 28.8927C5.92596 28.735 3.12764 25.681 3.28533 22.0714C3.44302 18.4618 6.497 15.6635 10.1066 15.8212C10.2326 15.8267 10.3576 15.8358 10.4816 15.8482C11.7684 12.1122 15.393 9.50395 19.5418 9.6852C23.6917 9.86649 27.0756 12.7822 28.0308 16.6176C28.155 16.6142 28.2802 16.6152 28.4062 16.6207C31.2939 16.7469 33.5325 19.1901 33.4064 22.0777C33.2802 24.9654 30.837 27.2041 27.9494 27.0779C26.7998 27.0277 25.753 26.6102 24.9174 25.9437Z" fill="url(#paint3_linear_4504_3779)"/>
</g>
<path d="M17.4037 5.34294C17.431 5.24565 17.569 5.24565 17.5963 5.34294L17.8136 6.11713C17.8231 6.15071 17.8493 6.17695 17.8829 6.18637L18.6571 6.40372C18.7544 6.43104 18.7544 6.56896 18.6571 6.59628L17.8829 6.81363C17.8493 6.82305 17.8231 6.84929 17.8136 6.88287L17.5963 7.65706C17.569 7.75435 17.431 7.75435 17.4037 7.65706L17.1864 6.88287C17.1769 6.84929 17.1507 6.82305 17.1171 6.81363L16.3429 6.59628C16.2456 6.56896 16.2456 6.43104 16.3429 6.40372L17.1171 6.18637C17.1507 6.17695 17.1769 6.15071 17.1864 6.11713L17.4037 5.34294Z" fill="#EEEBDA" fill-opacity="0.8"/>
<path d="M24.4037 2.34294C24.431 2.24565 24.569 2.24565 24.5963 2.34294L24.8136 3.11713C24.8231 3.15071 24.8493 3.17695 24.8829 3.18637L25.6571 3.40372C25.7544 3.43104 25.7544 3.56896 25.6571 3.59628L24.8829 3.81363C24.8493 3.82305 24.8231 3.84929 24.8136 3.88287L24.5963 4.65706C24.569 4.75435 24.431 4.75435 24.4037 4.65706L24.1864 3.88287C24.1769 3.84929 24.1507 3.82305 24.1171 3.81363L23.3429 3.59628C23.2456 3.56896 23.2456 3.43104 23.3429 3.40372L24.1171 3.18637C24.1507 3.17695 24.1769 3.15071 24.1864 3.11713L24.4037 2.34294Z" fill="#FFFCE0" fill-opacity="0.9"/>
<path d="M27.9037 10.3429C27.931 10.2456 28.069 10.2456 28.0963 10.3429L28.4232 11.5075C28.4327 11.5411 28.4589 11.5673 28.4925 11.5768L29.6571 11.9037C29.7544 11.931 29.7544 12.069 29.6571 12.0963L28.4925 12.4232C28.4589 12.4327 28.4327 12.4589 28.4232 12.4925L28.0963 13.6571C28.069 13.7544 27.931 13.7544 27.9037 13.6571L27.5768 12.4925C27.5673 12.4589 27.5411 12.4327 27.5075 12.4232L26.3429 12.0963C26.2456 12.069 26.2456 11.931 26.3429 11.9037L27.5075 11.5768C27.5411 11.5673 27.5673 11.5411 27.5768 11.5075L27.9037 10.3429Z" fill="white" fill-opacity="0.4"/>
<defs>
<linearGradient id="paint0_linear_4504_3779" x1="3.28408e-07" y1="11.5" x2="52" y2="12" gradientUnits="userSpaceOnUse">
<stop stop-color="#3959CC"/>
<stop offset="0.52832" stop-color="#625096"/>
<stop offset="1" stop-color="#2E49A6"/>
</linearGradient>
<linearGradient id="paint1_linear_4504_3779" x1="3.28408e-07" y1="11.5" x2="52" y2="12" gradientUnits="userSpaceOnUse">
<stop offset="0.00673288" stop-color="#CD792B"/>
<stop offset="0.52832" stop-color="#A689FB"/>
<stop offset="1" stop-color="#89A2FB"/>
</linearGradient>
<linearGradient id="paint2_linear_4504_3779" x1="10" y1="4" x2="10" y2="14" gradientUnits="userSpaceOnUse">
<stop stop-color="white"/>
<stop offset="1" stop-color="#D9D9D9" stop-opacity="0"/>
</linearGradient>
<linearGradient id="paint3_linear_4504_3779" x1="18.8884" y1="9.65669" x2="18.0319" y2="29.2639" gradientUnits="userSpaceOnUse">
<stop stop-color="white"/>
<stop offset="1" stop-color="#D9D9D9" stop-opacity="0"/>
</linearGradient>
</defs>
</svg>
